<svg width="209" height="68" viewBox="0 0 209 68" fill="none" xmlns="http://www.w3.org/2000/svg">
<g filter="url(#filter0_d_24_31)">
<rect width="201" height="60" rx="20" fill="black"/>
<path d="M63.741 13.0969C64.3976 13.055 65.0564 13.1433 65.67 13.3554C66.2835 13.5676 66.8366 13.8983 67.2892 14.3238C67.7417 14.7492 68.0826 15.2587 68.2872 15.8156C68.4918 16.3726 68.555 16.9629 68.4722 17.5442C68.4722 20.4036 66.7361 22.0472 63.741 22.0472H60.1092V13.0969H63.741ZM61.6709 20.7814H63.5666C64.0357 20.8064 64.5052 20.7379 64.9409 20.581C65.3766 20.4241 65.7674 20.1827 66.0851 19.8743C66.4027 19.566 66.6391 19.1985 66.777 18.7985C66.915 18.3986 66.951 17.9763 66.8825 17.5624C66.946 17.1502 66.9064 16.7305 66.7663 16.3335C66.6262 15.9365 66.3893 15.572 66.0724 15.2661C65.7554 14.9603 65.3664 14.7205 64.9332 14.5642C64.5 14.4078 64.0333 14.3387 63.5666 14.3618H61.6709V20.7814Z" fill="white"/>
<path d="M70.2363 18.6681C70.1886 18.2243 70.2456 17.7764 70.4038 17.3533C70.5619 16.9302 70.8176 16.5412 71.1545 16.2112C71.4915 15.8812 71.9021 15.6176 72.3602 15.4372C72.8183 15.2568 73.3137 15.1636 73.8147 15.1636C74.3156 15.1636 74.811 15.2568 75.2691 15.4372C75.7272 15.6176 76.1379 15.8812 76.4748 16.2112C76.8117 16.5412 77.0674 16.9302 77.2256 17.3533C77.3837 17.7764 77.4407 18.2243 77.393 18.6681C77.4416 19.1125 77.3853 19.5609 77.2276 19.9847C77.0699 20.4085 76.8143 20.7982 76.4773 21.1289C76.1403 21.4595 75.7293 21.7237 75.2707 21.9045C74.8122 22.0853 74.3162 22.1787 73.8147 22.1787C73.3131 22.1787 72.8172 22.0853 72.3586 21.9045C71.9 21.7237 71.4891 21.4595 71.152 21.1289C70.815 20.7982 70.5595 20.4085 70.4018 19.9847C70.244 19.5609 70.1877 19.1125 70.2363 18.6681ZM75.8527 18.6681C75.8527 17.204 75.1138 16.3478 73.8171 16.3478C72.5155 16.3478 71.7832 17.204 71.7832 18.6682C71.7832 20.144 72.5155 20.9936 73.8171 20.9936C75.1139 20.9936 75.8528 20.1381 75.8528 18.6681H75.8527Z" fill="white"/>
<path d="M86.9063 22.0472H85.3528L83.7846 17.0726H83.6661L82.1044 22.0472H80.5658L78.4742 15.2928H79.9931L81.3524 20.4468H81.4643L83.0243 15.2928H84.4609L86.021 20.4468H86.1394L87.4921 15.2928H88.9896L86.9063 22.0472Z" fill="white"/>
<path d="M90.7488 15.2922H92.1903V16.3652H92.3022C92.4921 15.9799 92.8122 15.6568 93.2181 15.4411C93.624 15.2254 94.0954 15.1278 94.5666 15.1619C94.9358 15.1372 95.3065 15.1867 95.6513 15.3068C95.9961 15.427 96.306 15.6146 96.5583 15.8559C96.8105 16.0972 96.9985 16.3859 97.1084 16.7006C97.2183 17.0153 97.2472 17.348 97.193 17.6741V22.0466H95.6955V18.0088C95.6955 16.9234 95.1656 16.3836 94.0581 16.3836C93.8074 16.3732 93.5572 16.4111 93.3246 16.4949C93.0919 16.5786 92.8824 16.7062 92.7103 16.8687C92.5382 17.0313 92.4076 17.2251 92.3275 17.4368C92.2474 17.6485 92.2197 17.8731 92.2463 18.0952V22.0466H90.7488L90.7488 15.2922Z" fill="white"/>
<path d="M99.5791 12.6561H101.077V22.0472H99.5791V12.6561Z" fill="white"/>
<path d="M103.158 18.6659C103.111 18.222 103.168 17.7742 103.326 17.351C103.484 16.9279 103.74 16.5389 104.077 16.2089C104.414 15.8789 104.824 15.6153 105.283 15.4349C105.741 15.2545 106.236 15.1613 106.737 15.1613C107.238 15.1613 107.733 15.2545 108.192 15.4349C108.65 15.6153 109.06 15.8789 109.397 16.2089C109.734 16.5389 109.99 16.9279 110.148 17.351C110.306 17.7742 110.363 18.222 110.316 18.6659C110.364 19.1103 110.308 19.5588 110.15 19.9826C109.992 20.4063 109.737 20.7961 109.4 21.1267C109.063 21.4573 108.652 21.7215 108.193 21.9023C107.735 22.0831 107.239 22.1765 106.737 22.1765C106.236 22.1765 105.74 22.0831 105.281 21.9023C104.822 21.7215 104.411 21.4573 104.074 21.1267C103.737 20.7961 103.482 20.4063 103.324 19.9826C103.166 19.5588 103.11 19.1103 103.158 18.6659ZM108.775 18.6659C108.775 17.2018 108.036 16.3456 106.739 16.3456C105.437 16.3456 104.705 17.2018 104.705 18.666C104.705 20.1418 105.437 20.9914 106.739 20.9914C108.036 20.9914 108.775 20.1359 108.775 18.6659H108.775Z" fill="white"/>
<path d="M111.892 20.1382C111.892 18.9224 112.909 18.2214 114.715 18.1218L116.77 18.0164V17.4333C116.77 16.72 116.24 16.3171 115.217 16.3171C114.381 16.3171 113.801 16.5903 113.635 17.0679H112.185C112.338 15.9077 113.564 15.1636 115.286 15.1636C117.188 15.1636 118.261 16.0066 118.261 17.4333V22.0483H116.819V21.0991H116.701C116.46 21.4396 116.123 21.7172 115.722 21.9035C115.322 22.0898 114.873 22.1782 114.422 22.1596C114.103 22.1891 113.781 22.1589 113.477 22.0708C113.172 21.9828 112.891 21.8389 112.653 21.6484C112.415 21.458 112.224 21.2252 112.093 20.9651C111.962 20.7049 111.894 20.4233 111.892 20.1382ZM116.77 19.561V18.9963L114.917 19.1018C113.872 19.164 113.398 19.4805 113.398 20.0759C113.398 20.6838 113.991 21.0376 114.805 21.0376C115.044 21.0591 115.285 21.0376 115.514 20.9745C115.743 20.9114 115.956 20.8078 116.139 20.6701C116.323 20.5323 116.473 20.3631 116.581 20.1726C116.69 19.9821 116.754 19.7741 116.77 19.561Z" fill="white"/>
<path d="M120.229 18.6671C120.229 16.5328 121.462 15.1807 123.379 15.1807C123.853 15.1613 124.324 15.2624 124.736 15.4722C125.148 15.6821 125.484 15.992 125.706 16.3657H125.818V12.6561H127.315V22.0472H125.88V20.98H125.762C125.523 21.3513 125.175 21.6573 124.755 21.865C124.335 22.0728 123.859 22.1742 123.379 22.1585C121.448 22.1586 120.229 20.8065 120.229 18.6671ZM121.776 18.6671C121.776 20.0997 122.535 20.9618 123.803 20.9618C125.066 20.9618 125.846 20.0873 125.846 18.6729C125.846 17.2652 125.057 16.3783 123.803 16.3783C122.543 16.3783 121.776 17.2462 121.776 18.6671H121.776Z" fill="white"/>
<path d="M133.511 18.6681C133.463 18.2243 133.52 17.7764 133.678 17.3533C133.836 16.9302 134.092 16.5412 134.429 16.2112C134.766 15.8812 135.177 15.6176 135.635 15.4372C136.093 15.2568 136.588 15.1636 137.089 15.1636C137.59 15.1636 138.085 15.2568 138.544 15.4372C139.002 15.6176 139.412 15.8812 139.749 16.2112C140.086 16.5412 140.342 16.9302 140.5 17.3533C140.658 17.7764 140.715 18.2243 140.668 18.6681C140.716 19.1125 140.66 19.5609 140.502 19.9847C140.344 20.4085 140.089 20.7982 139.752 21.1289C139.415 21.4595 139.004 21.7237 138.545 21.9045C138.087 22.0853 137.591 22.1787 137.089 22.1787C136.588 22.1787 136.092 22.0853 135.633 21.9045C135.175 21.7237 134.764 21.4595 134.427 21.1289C134.09 20.7982 133.834 20.4085 133.676 19.9847C133.519 19.5609 133.462 19.1125 133.511 18.6681ZM139.127 18.6681C139.127 17.204 138.388 16.3478 137.092 16.3478C135.79 16.3478 135.058 17.204 135.058 18.6682C135.058 20.144 135.79 20.9936 137.092 20.9936C138.388 20.9936 139.127 20.1381 139.127 18.6681Z" fill="white"/>
<path d="M142.677 15.2922H144.118V16.3652H144.23C144.42 15.9799 144.74 15.6568 145.146 15.4411C145.552 15.2254 146.023 15.1278 146.495 15.1619C146.864 15.1372 147.235 15.1867 147.579 15.3068C147.924 15.427 148.234 15.6146 148.486 15.8559C148.739 16.0972 148.927 16.3859 149.036 16.7006C149.146 17.0153 149.175 17.348 149.121 17.6741V22.0466H147.623V18.0088C147.623 16.9234 147.094 16.3836 145.986 16.3836C145.735 16.3732 145.485 16.4111 145.253 16.4949C145.02 16.5786 144.81 16.7062 144.638 16.8687C144.466 17.0313 144.336 17.2251 144.256 17.4368C144.175 17.6485 144.148 17.8731 144.174 18.0952V22.0466H142.677V15.2922Z" fill="white"/>
<path d="M157.583 13.6111V15.3235H159.227V16.4464H157.583V19.9195C157.583 20.627 157.91 20.9368 158.656 20.9368C158.846 20.9363 159.037 20.926 159.227 20.9061V22.0164C158.958 22.0592 158.685 22.082 158.412 22.0845C156.747 22.0845 156.084 21.563 156.084 20.2608V16.4463H154.879V15.3235H156.084V13.6111H157.583Z" fill="white"/>
<path d="M161.272 12.6561H162.756V16.3782H162.875C163.074 15.9893 163.403 15.6644 163.817 15.4479C164.231 15.2313 164.71 15.1337 165.189 15.1683C165.556 15.1505 165.923 15.2051 166.264 15.3281C166.605 15.4512 166.911 15.6397 167.161 15.8802C167.41 16.1207 167.597 16.4073 167.708 16.7195C167.819 17.0317 167.851 17.3618 167.802 17.6863V22.0472H166.303V18.0152C166.303 16.9363 165.738 16.3899 164.68 16.3899C164.423 16.3712 164.164 16.4026 163.922 16.4822C163.679 16.5618 163.46 16.6876 163.278 16.8507C163.096 17.0138 162.956 17.2103 162.868 17.4265C162.78 17.6427 162.747 17.8734 162.77 18.1023V22.0472H161.272L161.272 12.6561Z" fill="white"/>
<path d="M176.534 20.2223C176.33 20.8396 175.889 21.3736 175.288 21.7308C174.687 22.0881 173.964 22.2458 173.246 22.1764C172.746 22.1882 172.249 22.1029 171.79 21.9267C171.331 21.7504 170.92 21.4872 170.586 21.1555C170.253 20.8238 170.005 20.4315 169.858 20.0058C169.712 19.58 169.672 19.1311 169.74 18.6901C169.674 18.2478 169.715 17.7979 169.861 17.3709C170.006 16.9439 170.253 16.5497 170.585 16.2151C170.917 15.8805 171.326 15.6132 171.783 15.4314C172.241 15.2496 172.738 15.1575 173.239 15.1613C175.35 15.1613 176.624 16.4453 176.624 18.5663V19.0314H171.266V19.1061C171.243 19.354 171.278 19.6035 171.369 19.8386C171.46 20.0738 171.605 20.2893 171.796 20.4715C171.986 20.6537 172.217 20.7985 172.474 20.8966C172.73 20.9947 173.007 21.0439 173.287 21.0411C173.645 21.0794 174.008 21.022 174.329 20.8762C174.651 20.7304 174.916 20.5028 175.092 20.2223L176.534 20.2223ZM171.266 18.0456H175.099C175.117 17.8189 175.083 17.5912 174.997 17.3771C174.911 17.163 174.776 16.9673 174.6 16.8025C174.424 16.6377 174.211 16.5075 173.976 16.4203C173.74 16.333 173.486 16.2906 173.231 16.2958C172.972 16.2929 172.715 16.3362 172.475 16.4231C172.235 16.5101 172.017 16.6388 171.834 16.8019C171.651 16.965 171.506 17.159 171.409 17.3726C171.311 17.5862 171.263 17.815 171.266 18.0456H171.266Z" fill="white"/>
<path d="M41.7381 30.4506C41.7562 29.1986 42.1298 27.971 42.8241 26.8821C43.5184 25.7931 44.5108 24.8782 45.7091 24.2225C44.9479 23.2547 43.9437 22.4583 42.7762 21.8965C41.6087 21.3347 40.3101 21.0229 38.9836 20.9859C36.1539 20.7216 33.4106 22.4932 31.9687 22.4932C30.4988 22.4932 28.2787 21.0122 25.888 21.056C24.3416 21.1005 22.8345 21.5007 21.5136 22.2178C20.1927 22.9349 19.103 23.9443 18.3507 25.1478C15.0917 30.1704 17.5226 37.552 20.6444 41.6119C22.2063 43.5999 24.0318 45.8206 26.4203 45.7419C28.7577 45.6556 29.6306 44.4151 32.452 44.4151C35.2472 44.4151 36.0662 45.7419 38.5032 45.6918C41.0113 45.6555 42.5915 43.6949 44.0986 41.6881C45.2208 40.2715 46.0844 38.7059 46.6573 37.0493C45.2002 36.5007 43.9567 35.5824 43.0819 34.409C42.2071 33.2356 41.7398 31.8589 41.7381 30.4506Z" fill="white"/>
<path d="M37.135 18.3168C38.5025 16.8555 39.1762 14.9772 39.0131 13.0809C36.9238 13.2762 34.9939 14.165 33.6079 15.5703C32.9303 16.2568 32.4113 17.0554 32.0806 17.9206C31.7499 18.7857 31.614 19.7004 31.6807 20.6124C32.7257 20.6219 33.7595 20.4203 34.7043 20.0227C35.649 19.6251 36.4801 19.0418 37.135 18.3168Z" fill="white"/>
<path d="M71.2836 40.7094H63.3073L61.3919 45.7441H58.0134L65.5684 27.1171H69.0785L76.6335 45.7441H73.1974L71.2836 40.7094ZM64.1334 38.3862H70.4559L67.3392 30.2153H67.2519L64.1334 38.3862Z" fill="white"/>
<path d="M92.9497 38.9542C92.9497 43.1745 90.4122 45.8859 86.5828 45.8859C85.6128 45.931 84.6481 45.7321 83.7991 45.3119C82.9502 44.8917 82.2513 44.2672 81.7826 43.5099H81.7101V50.2364H78.5786V32.1632H81.6098V34.422H81.6674C82.1577 33.6683 82.8684 33.047 83.7238 32.6243C84.5792 32.2015 85.5473 31.993 86.5252 32.0211C90.3973 32.0211 92.9497 34.7457 92.9497 38.9542ZM89.7309 38.9542C89.7309 36.2047 88.1346 34.3971 85.6991 34.3971C83.3064 34.3971 81.697 36.2428 81.697 38.9542C81.697 41.6906 83.3064 43.5231 85.6991 43.5231C88.1346 43.5231 89.7309 41.7287 89.7309 38.9542Z" fill="white"/>
<path d="M109.741 38.9542C109.741 43.1744 107.204 45.8859 103.375 45.8859C102.405 45.931 101.44 45.7321 100.591 45.3119C99.742 44.8917 99.0431 44.2672 98.5744 43.5099H98.5019V50.2364H95.3703V32.1632H98.4015V34.422H98.4591C98.9494 33.6683 99.6601 33.047 100.515 32.6242C101.371 32.2015 102.339 31.993 103.317 32.0211C107.189 32.0211 109.741 34.7457 109.741 38.9542ZM106.523 38.9542C106.523 36.2047 104.926 34.3971 102.491 34.3971C100.098 34.3971 98.4888 36.2428 98.4888 38.9542C98.4888 41.6906 100.098 43.5231 102.491 43.5231C104.926 43.5231 106.523 41.7286 106.523 38.9542H106.523Z" fill="white"/>
<path d="M120.839 40.5542C121.072 42.4014 123.087 43.6142 125.842 43.6142C128.482 43.6142 130.381 42.4013 130.381 40.7358C130.381 39.29 129.235 38.4243 126.523 37.831L123.811 37.2495C119.969 36.4233 118.185 34.8237 118.185 32.228C118.185 29.0141 121.332 26.8066 125.799 26.8066C130.221 26.8066 133.252 29.0141 133.354 32.228H130.193C130.004 30.3691 128.278 29.247 125.755 29.247C123.232 29.247 121.506 30.3823 121.506 32.0346C121.506 33.3515 122.608 34.1264 125.306 34.7196L127.611 35.2235C131.905 36.1273 133.688 37.6625 133.688 40.3871C133.688 43.872 130.57 46.0546 125.61 46.0546C120.969 46.0546 117.836 43.9232 117.634 40.5541L120.839 40.5542Z" fill="white"/>
<path d="M140.447 28.9508V32.1647H143.348V34.3722H140.447V41.859C140.447 43.0221 141.028 43.5641 142.303 43.5641C142.648 43.5587 142.991 43.5372 143.333 43.4996V45.6939C142.76 45.7893 142.177 45.8325 141.594 45.8228C138.505 45.8228 137.3 44.7901 137.3 42.1563V34.3722H135.082V32.1647H137.3V28.9508H140.447Z" fill="white"/>
<path d="M145.028 38.9557C145.028 34.6827 147.855 31.9977 152.264 31.9977C156.687 31.9977 159.501 34.6827 159.501 38.9557C159.501 43.2404 156.702 45.9137 152.264 45.9137C147.827 45.9137 145.028 43.2403 145.028 38.9557ZM156.311 38.9557C156.311 36.0245 154.802 34.2946 152.264 34.2946C149.727 34.2946 148.219 36.0377 148.219 38.9557C148.219 41.8986 149.727 43.6154 152.264 43.6154C154.802 43.6154 156.311 41.8986 156.311 38.9557H156.311Z" fill="white"/>
<path d="M162.083 32.1631H165.07V34.4746H165.143C165.345 33.7527 165.82 33.1147 166.488 32.6678C167.156 32.221 167.977 31.9926 168.812 32.021C169.173 32.0199 169.533 32.0547 169.885 32.125V34.7324C169.43 34.6085 168.954 34.5516 168.478 34.564C168.023 34.5475 167.57 34.6189 167.149 34.7733C166.728 34.9276 166.349 35.1612 166.039 35.458C165.729 35.7549 165.495 36.1079 165.353 36.4929C165.21 36.8779 165.163 37.2858 165.215 37.6885V45.7436H162.083L162.083 32.1631Z" fill="white"/>
<path d="M184.324 41.7565C183.902 44.2218 181.205 45.9137 177.754 45.9137C173.316 45.9137 170.562 43.2667 170.562 39.0201C170.562 34.7604 173.331 31.9977 177.623 31.9977C181.844 31.9977 184.498 34.5787 184.498 38.6964V39.6515H173.723V39.8199C173.673 40.3197 173.743 40.8232 173.929 41.297C174.115 41.7708 174.411 42.2039 174.8 42.5678C175.188 42.9316 175.658 43.2177 176.18 43.4072C176.702 43.5966 177.264 43.6851 177.827 43.6666C178.567 43.7283 179.31 43.5758 179.944 43.2316C180.579 42.8875 181.072 42.3701 181.35 41.7565L184.324 41.7565ZM173.738 37.7032H181.365C181.393 37.2539 181.317 36.8041 181.14 36.3823C180.964 35.9605 180.691 35.5757 180.34 35.2521C179.989 34.9284 179.566 34.6729 179.098 34.5016C178.631 34.3302 178.128 34.2468 177.623 34.2565C177.113 34.2538 176.607 34.341 176.135 34.5131C175.664 34.6852 175.235 34.9388 174.873 35.2593C174.512 35.5797 174.226 35.9607 174.031 36.3801C173.836 36.7996 173.736 37.2493 173.738 37.7033V37.7032Z" fill="white"/>
</g>
<defs>
<filter id="filter0_d_24_31" x="0" y="0" width="209" height="68" filterUnits="userSpaceOnUse" color-interpolation-filters="sRGB">
<feFlood flood-opacity="0" result="BackgroundImageFix"/>
<feColorMatrix in="SourceAlpha" type="matrix" values="0 0 0 0 0 0 0 0 0 0 0 0 0 0 0 0 0 0 127 0" result="hardAlpha"/>
<feOffset dx="4" dy="4"/>
<feGaussianBlur stdDeviation="2"/>
<feComposite in2="hardAlpha" operator="out"/>
<feColorMatrix type="matrix" values="0 0 0 0 0.698039 0 0 0 0 0.698039 0 0 0 0 0.698039 0 0 0 0.25 0"/>
<feBlend mode="normal" in2="BackgroundImageFix" result="effect1_dropShadow_24_31"/>
<feBlend mode="normal" in="SourceGraphic" in2="effect1_dropShadow_24_31" result="shape"/>
</filter>
</defs>
</svg>
