<svg width="275" height="209" viewBox="0 0 275 209" fill="none" xmlns="http://www.w3.org/2000/svg">
<path d="M76.294 11.6995L70.9907 14.441L77.7077 46.7154L26.5355 93.6685L63.8324 169.536L70.7258 172.101L34.0482 95.2603L84.3945 48.1608L76.294 11.6995Z" fill="#DA8E79" fill-opacity="0.05"/>
<path d="M-35.213 292.8L-37.5692 287.022L-10.5826 268.514L-14.7062 198.717L63.8558 169.539L70.7245 172.101L-8.58024 202.726L-4.63621 270.752L-35.213 292.8Z" fill="#DA8E79" fill-opacity="0.05"/>
<path d="M221.091 297.044L222.978 290.797L196.582 271.813L202.946 202.373L125.4 169.863L118.393 172.101L196.936 206.263L190.572 274.88L221.091 297.044Z" fill="#DA8E79" fill-opacity="0.05"/>
<path d="M118.548 11.6994L123.757 14.6233L115.891 46.6385L165.359 95.3851L125.381 169.876L118.393 172.101L157.794 96.7114L109.157 47.843L118.548 11.6994Z" fill="#DA8E79" fill-opacity="0.05"/>
<path d="M152.603 343.351L157.174 338.698L142.63 309.612L180.534 251.094L126.983 186.238L119.739 184.961L173.402 251.741L135.882 309.531L152.603 343.351Z" fill="#DA8E79" fill-opacity="0.05"/>
<path d="M194.417 43.0243L197.671 48.0337L175.827 72.7208L196.972 138.887L126.959 186.244L119.739 184.961L189.659 136.544L169.306 70.6542L194.417 43.0243Z" fill="#DA8E79" fill-opacity="0.05"/>
<path d="M31.0482 340.196L26.0103 336.305L41.6539 307.302L5.03687 247.765L60.7053 185.669L67.9998 184.704L12.5796 248.472L48.9896 307.302L31.0482 340.196Z" fill="#DA8E79" fill-opacity="0.05"/>
<path d="M-0.494155 39.6694L-3.95724 44.5382L16.8011 70.1454L-7.18054 135.339L60.726 185.669L67.9957 184.704L0.227016 133.311L23.4075 68.3627L-0.494155 39.6694Z" fill="#DA8E79" fill-opacity="0.05"/>
<path d="M150.979 22.5759H157.574L147.322 58.7716L80.5061 76.9289L78.1504 162.109L-7.18108 152.206L-35.1539 215.164L-72.6268 219.585L-71.743 213.042L-39.2191 209.327L-10.7605 145.839L72.4942 155.919L75.3218 72.0934L142.668 54.4082L150.979 22.5759Z" fill="#DA8E79" fill-opacity="0.05"/>
<path d="M218.766 66.7488L224.61 69.8111L198.739 97.1143L131.131 82.1791L89.5363 156.536L18.5421 108.148L-35.4393 150.929L-70.6835 137.45L-66.8666 132.061L-36.3342 143.872L18.3239 100.848L87.3961 148.428L128.783 75.489L196.64 91.0878L218.766 66.7488Z" fill="#DA8E79" fill-opacity="0.05"/>
<path d="M257.626 138.002L261.277 143.421L225.284 155.455L173.095 110.848L100.438 157.044L61.509 81.3752L-6.71543 93.9786L-31.1555 65.7077L-25.184 62.7317L-4.07502 87.3411L64.862 74.8374L102.49 148.901L174.277 103.857L226.361 149.169L257.626 138.002Z" fill="#DA8E79" fill-opacity="0.05"/>
<path d="M259.063 219.143L259.77 224.979L223.446 218.877L197.594 154.502L112.481 162.786L111.766 77.0118L45.6014 57.1441L36.5535 20.5728L43.1824 20.628L50.9101 52.3885L117.662 72.6709L117.941 156.409L201.767 148.76L227.726 213.276L259.063 219.143Z" fill="#DA8E79" fill-opacity="0.05"/>
<path d="M71.7151 350.643L77.515 349.243L78.6776 316.296L139.556 282.888L121.394 200.317L115.312 196.186L132.637 279.55L72.5243 313.298L71.7151 350.643Z" fill="#DA8E79" fill-opacity="0.05"/>
<path d="M247.486 104.987V111.641L216.906 122.777L204.887 191.112L121.372 200.308L115.313 196.185L199.937 185.984L211.78 118.428L247.486 104.987Z" fill="#DA8E79" fill-opacity="0.05"/>
<path d="M1.77188 322.278L-4.63293 320.709L13.9407 287.998L83.1562 286.288L105.724 204.116L186.241 234.073L228.399 179.592L265.845 184.227L263.428 190.372L230.959 186.23L188.202 241.109L109.743 211.477L87.0396 292.217L17.4236 293.347L1.77188 322.278Z" fill="#DA8E79" fill-opacity="0.05"/>
<path d="M-53.546 263.225L-58.4955 258.859L-26.8665 238.505L35.2373 269.125L93.3338 206.819L150.768 270.73L213.38 242.047L244.401 263.534L239.414 267.86L212.571 249.113L149.243 277.873L93.4856 215.202L35.9253 276.182L-26.267 244.86L-53.546 263.225Z" fill="#DA8E79" fill-opacity="0.05"/>
<path d="M-74.3264 184.762L-76.5829 178.631L-38.7615 175.522L1.30826 231.279L82.8722 203.729L102.664 286.497L171.924 290.512L188.931 323.795L182.425 325.263L167.781 296.329L97.8499 292.048L78.9394 211.145L-1.5037 237.786L-41.3023 181.369L-74.3264 184.762Z" fill="#DA8E79" fill-opacity="0.05"/>
<path d="M-56.4109 105.612L-55.7063 99.7755L-21.8815 114.36L-12.0989 183.044L72.5365 195.276L52.8111 278.754L112.341 313.817L112.421 351.494L105.997 349.858L106.049 317.172L46.0501 281.567L65.7146 200.172L-17.5176 187.625L-27.3721 118.782L-56.4109 105.612Z" fill="#DA8E79" fill-opacity="0.05"/>
<path d="M92.2451 346.446L57.2133 324.834L16.0721 325.865L-5.28572 290.064L-42.2481 272.843L-45.1507 231.646L-69.0632 199.2L-52.5911 159.898L-58.9573 119.491L-25.7867 95.3705L-13.1068 56.5937L27.5234 49.5167L57.7746 20.6985L97.1259 33.0365L136.671 22.147L165.295 51.512L205.37 59.6883L217.166 99.258L249.044 126.44L241.432 166.512L257.208 204.971L231.652 236.525L228.205 277.902L191.326 293.332L168.918 328.945L127.244 325.886L92.2451 346.446ZM59.1361 317.711L92.3341 338.189L125.565 318.669L165.201 321.579L186.537 287.668L221.516 273.035L224.786 233.769L249.077 203.779L234.097 167.255L241.333 129.16L210.991 103.288L199.808 65.7741L161.755 58.0125L134.523 30.0785L96.9997 40.4104L59.6364 28.697L30.849 56.1166L-7.70969 62.8341L-19.7766 99.7482L-51.3009 122.67L-45.294 160.783L-60.9924 198.234L-38.2398 229.099L-35.4862 268.191L-0.329979 284.572L20.0278 318.693L59.1361 317.711Z" fill="#DA8E79" fill-opacity="0.05"/>
<path d="M97.1508 30.0481L90.6988 22.5762L97.1508 12.0093L103.293 22.5762L97.1508 30.0481Z" fill="#DA8E79" fill-opacity="0.05"/>
<path d="M27.3279 46.0195L18.1448 42.4024L18.9459 30.0478L29.2948 36.547L27.3279 46.0195Z" fill="#DA8E79" fill-opacity="0.05"/>
<path d="M245.157 166.334L251.786 159.012L263.052 164.135L253.319 171.526L245.157 166.334Z" fill="#DA8E79" fill-opacity="0.05"/>
<path d="M220.709 97.4712L223.178 87.899L235.535 87.1972L230.351 98.2695L220.709 97.4712Z" fill="#DA8E79" fill-opacity="0.05"/>
<path d="M167.48 47.843L165.215 38.2182L175.832 31.8493L176.387 44.0655L167.48 47.843Z" fill="#DA8E79" fill-opacity="0.05"/>
<path d="M79.5649 9.78472L83.393 14.0897L96.9953 6.89724L110.026 14.6203L114.268 10.7601L96.9953 0L79.5649 9.78472Z" fill="#DA8E79" fill-opacity="0.05"/>
<path d="M1.75909 36.0026L7.14771 38.0333L15.8476 25.3418L30.9771 26.1159L32.9381 20.7273L12.6437 19.2348L1.75909 36.0026Z" fill="#DA8E79" fill-opacity="0.05"/>
<path d="M262.401 146.035L258.604 150.366L267.4 162.988L261.318 176.876L265.671 180.617L274.239 162.145L262.401 146.035Z" fill="#DA8E79" fill-opacity="0.05"/>
<path d="M226.729 71.8033L225.376 77.4013L239.031 84.4895L240.1 99.6129L245.693 100.897L244.693 80.5601L226.729 71.8033Z" fill="#DA8E79" fill-opacity="0.05"/>
<path d="M162.461 22.1727L163.863 27.7599L179.248 27.6826L187.221 40.5759L192.769 39.1144L182.435 21.5703L162.461 22.1727Z" fill="#DA8E79" fill-opacity="0.05"/>
</svg>
