<svg width="60" height="60" viewBox="0 0 60 60" fill="none" xmlns="http://www.w3.org/2000/svg">
<g clip-path="url(#clip0_129_1677)">
<path d="M50.625 0H9.375C4.19733 0 0 4.19733 0 9.375V50.625C0 55.8027 4.19733 60 9.375 60H50.625C55.8027 60 60 55.8027 60 50.625V9.375C60 4.19733 55.8027 0 50.625 0Z" fill="#1877F2"/>
<path d="M45 30C45 21.75 38.25 15 30 15C21.75 15 15 21.75 15 30C15 37.5 20.4375 43.6875 27.5625 44.8125V34.3125H23.8125V30H27.5625V26.625C27.5625 22.875 29.8125 20.8125 33.1875 20.8125C34.875 20.8125 36.5625 21.1875 36.5625 21.1875V24.9375H34.6875C32.8125 24.9375 32.25 26.0625 32.25 27.1875V30H36.375L35.625 34.3125H32.0625V45C39.5625 43.875 45 37.5 45 30Z" fill="white"/>
</g>
<defs>
<clipPath id="clip0_129_1677">
<rect width="60" height="60" rx="15" fill="white"/>
</clipPath>
</defs>
</svg>
