<svg width="343" height="341" viewBox="0 0 343 341" fill="none" xmlns="http://www.w3.org/2000/svg">
<path d="M154.528 11.1348L149.478 13.7439L155.874 44.4604L107.15 89.1471L142.662 161.353L149.226 163.793L114.303 90.662L162.241 45.836L154.528 11.1348Z" fill="#DA8E79" fill-opacity="0.05"/>
<path d="M48.3566 278.666L46.1132 273.167L71.8085 255.553L67.8822 189.124L142.685 161.356L149.225 163.793L73.715 192.94L77.4703 257.683L48.3566 278.666Z" fill="#DA8E79" fill-opacity="0.05"/>
<path d="M292.396 282.706L294.192 276.76L269.06 258.693L275.119 192.604L201.284 161.664L194.612 163.794L269.397 196.307L263.338 261.611L292.396 282.706Z" fill="#DA8E79" fill-opacity="0.05"/>
<path d="M194.759 11.1346L199.719 13.9174L192.229 44.3872L239.331 90.7808L201.266 161.676L194.612 163.793L232.128 92.043L185.819 45.5336L194.759 11.1346Z" fill="#DA8E79" fill-opacity="0.05"/>
<path d="M227.185 326.777L231.537 322.349L217.689 294.667L253.779 238.973L202.791 177.248L195.894 176.033L246.989 239.589L211.264 294.59L227.185 326.777Z" fill="#DA8E79" fill-opacity="0.05"/>
<path d="M266.999 40.9474L270.097 45.715L249.298 69.2104L269.431 132.183L202.768 177.253L195.894 176.033L262.468 129.953L243.089 67.2435L266.999 40.9474Z" fill="#DA8E79" fill-opacity="0.05"/>
<path d="M111.447 323.774L106.65 320.071L121.545 292.468L86.6805 235.805L139.685 176.706L146.63 175.788L93.8623 236.478L128.53 292.468L111.447 323.774Z" fill="#DA8E79" fill-opacity="0.05"/>
<path d="M81.4142 37.7545L78.1168 42.3883L97.8817 66.7594L75.0477 128.806L139.705 176.706L146.627 175.788L82.1008 126.876L104.172 65.0628L81.4142 37.7545Z" fill="#DA8E79" fill-opacity="0.05"/>
<path d="M225.639 21.4861H231.918L222.157 55.9346L158.538 73.2155L156.295 154.284L75.0472 144.858L48.413 204.777L12.7333 208.985L13.5747 202.758L44.5423 199.223L71.6391 138.799L150.91 148.393L153.602 68.6134L217.726 51.7819L225.639 21.4861Z" fill="#DA8E79" fill-opacity="0.05"/>
<path d="M290.182 63.5269L295.746 66.4413L271.113 92.4266L206.741 78.2123L167.136 148.98L99.5394 102.928L48.1412 143.643L14.5835 130.815L18.2178 125.686L47.2891 136.927L99.3316 95.9798L165.099 141.263L204.505 71.8451L269.114 86.6909L290.182 63.5269Z" fill="#DA8E79" fill-opacity="0.05"/>
<path d="M327.182 131.341L330.658 136.498L296.388 147.951L246.697 105.498L177.516 149.464L140.45 77.4472L75.4905 89.4422L52.22 62.5359L57.9057 59.7036L78.0046 83.1251L143.643 71.2249L179.47 141.713L247.822 98.844L297.413 141.968L327.182 131.341Z" fill="#DA8E79" fill-opacity="0.05"/>
<path d="M328.55 208.565L329.224 214.119L294.638 208.312L270.023 147.044L188.983 154.928L188.302 73.2944L125.304 54.3857L116.689 19.5797L123.001 19.6323L130.358 49.8597L193.916 69.1631L194.182 148.859L273.997 141.579L298.714 202.981L328.55 208.565Z" fill="#DA8E79" fill-opacity="0.05"/>
<path d="M150.168 333.717L155.69 332.384L156.797 301.028L214.762 269.233L197.469 190.647L191.678 186.716L208.174 266.056L150.938 298.175L150.168 333.717Z" fill="#DA8E79" fill-opacity="0.05"/>
<path d="M317.528 99.9197V106.252L288.411 116.85L276.967 181.887L197.449 190.639L191.679 186.715L272.254 177.006L283.53 112.711L317.528 99.9197Z" fill="#DA8E79" fill-opacity="0.05"/>
<path d="M83.5717 306.722L77.4734 305.228L95.1583 274.096L161.062 272.468L182.55 194.264L259.214 222.774L299.354 170.923L335.008 175.334L332.707 181.182L301.791 177.24L261.081 229.47L186.376 201.269L164.759 278.111L98.4744 279.187L83.5717 306.722Z" fill="#DA8E79" fill-opacity="0.05"/>
<path d="M30.9009 250.519L26.1883 246.364L56.3037 226.992L115.436 256.134L170.752 196.835L225.437 257.661L285.053 230.363L314.59 250.813L309.841 254.93L284.283 237.088L223.986 264.46L170.897 204.814L116.091 262.851L56.8745 233.041L30.9009 250.519Z" fill="#DA8E79" fill-opacity="0.05"/>
<path d="M11.1149 175.844L8.96643 170.008L44.9779 167.049L83.1302 220.115L160.791 193.895L179.636 272.668L245.582 276.489L261.775 308.165L255.58 309.562L241.637 282.024L175.052 277.95L157.046 200.953L80.4528 226.308L42.5588 172.614L11.1149 175.844Z" fill="#DA8E79" fill-opacity="0.05"/>
<path d="M28.1732 100.514L28.844 94.9592L61.0502 108.84L70.3647 174.208L150.95 185.85L132.168 265.299L188.85 298.669L188.926 334.527L182.809 332.971L182.859 301.862L125.731 267.976L144.455 190.51L65.2053 178.568L55.8224 113.048L28.1732 100.514Z" fill="#DA8E79" fill-opacity="0.05"/>
<path d="M169.716 329.723L136.36 309.154L97.1876 310.135L76.8518 276.062L41.6583 259.672L38.8945 220.464L16.1263 189.584L31.8102 152.18L25.7487 113.723L57.3319 90.7668L69.405 53.8618L108.091 47.1265L136.895 19.6993L174.363 31.4417L212.015 21.0779L239.269 49.0254L277.427 56.807L288.658 94.4667L319.011 120.337L311.763 158.475L326.784 195.077L302.452 225.107L299.17 264.487L264.055 279.173L242.72 313.067L203.04 310.155L169.716 329.723ZM138.191 302.375L169.8 321.864L201.441 303.287L239.18 306.056L259.495 273.782L292.801 259.855L295.914 222.485L319.043 193.943L304.779 159.181L311.669 122.926L282.779 98.3022L272.131 62.5991L235.899 55.2121L209.97 28.6265L174.243 38.4597L138.667 27.3117L111.257 53.4077L74.5439 59.801L63.0544 94.9332L33.0386 116.748L38.7581 153.022L23.8109 188.665L45.4747 218.041L48.0965 255.245L81.5704 270.835L100.954 303.309L138.191 302.375Z" fill="#DA8E79" fill-opacity="0.05"/>
<path d="M174.386 28.5976L168.243 21.4864L174.386 11.4296L180.235 21.4864L174.386 28.5976Z" fill="#DA8E79" fill-opacity="0.05"/>
<path d="M107.905 43.798L99.1612 40.3555L99.924 28.5973L109.778 34.7828L107.905 43.798Z" fill="#DA8E79" fill-opacity="0.05"/>
<path d="M54.6789 87.7956L45.3379 88.8137L40.5462 78.0466L52.146 78.9437L54.6789 87.7956Z" fill="#DA8E79" fill-opacity="0.05"/>
<path d="M28.746 151.875L20.949 157.116L11.7029 149.81L22.3899 145.214L28.746 151.875Z" fill="#DA8E79" fill-opacity="0.05"/>
<path d="M34.8578 220.89L30.3927 229.154L18.8113 226.984L26.1376 217.945L34.8578 220.89Z" fill="#DA8E79" fill-opacity="0.05"/>
<path d="M74.5799 278.667L74.4696 288.06L63.2037 291.524L65.4916 280.113L74.5799 278.667Z" fill="#DA8E79" fill-opacity="0.05"/>
<path d="M135.385 313.054L139.656 321.42L131.291 329.723L128.011 318.559L135.385 313.054Z" fill="#DA8E79" fill-opacity="0.05"/>
<path d="M204.387 313.457L212.061 318.879L208.51 330.117L200.416 321.759L204.387 313.457Z" fill="#DA8E79" fill-opacity="0.05"/>
<path d="M265.827 282.241L275.141 283.473L277.221 295.074L266.169 291.437L265.827 282.241Z" fill="#DA8E79" fill-opacity="0.05"/>
<path d="M305.267 226.616L314.092 223.378L321.324 232.681L309.848 234.6L305.267 226.616Z" fill="#DA8E79" fill-opacity="0.05"/>
<path d="M315.31 158.305L321.622 151.336L332.348 156.212L323.081 163.246L315.31 158.305Z" fill="#DA8E79" fill-opacity="0.05"/>
<path d="M292.032 92.7662L294.383 83.6561L306.149 82.9882L301.213 93.526L292.032 92.7662Z" fill="#DA8E79" fill-opacity="0.05"/>
<path d="M241.35 45.5335L239.194 36.3734L249.302 30.3119L249.831 41.9384L241.35 45.5335Z" fill="#DA8E79" fill-opacity="0.05"/>
<path d="M157.642 9.31241L161.287 13.4095L174.238 6.56431L186.646 13.9145L190.685 10.2407L174.238 0L157.642 9.31241Z" fill="#DA8E79" fill-opacity="0.05"/>
<path d="M83.5595 34.2647L88.6903 36.1974L96.9739 24.1185L111.379 24.8552L113.246 19.7267L93.9232 18.3063L83.5595 34.2647Z" fill="#DA8E79" fill-opacity="0.05"/>
<path d="M29.7003 90.783L35.141 90.1099L36.8611 75.5643L49.9569 69.5178L49.2283 64.111L31.4567 71.8375L29.7003 90.783Z" fill="#DA8E79" fill-opacity="0.05"/>
<path d="M7.25019 166.415L11.755 163.291L6.51649 149.61L15.3051 138.171L12.1441 133.721L0 148.824L7.25019 166.415Z" fill="#DA8E79" fill-opacity="0.05"/>
<path d="M23.5614 243.113L26.0969 238.25L15.0991 228.573L17.5657 214.361L12.6958 211.888L8.96655 230.908L23.5614 243.113Z" fill="#DA8E79" fill-opacity="0.05"/>
<path d="M73.5604 303.942L73.5471 298.461L59.3097 295.006L54.8891 281.273L49.4274 281.352L54.9657 299.924L73.5604 303.942Z" fill="#DA8E79" fill-opacity="0.05"/>
<path d="M146.179 335.166L143.618 330.32L129.407 333.877L119.112 323.774L114.312 326.38L127.845 340.25L146.179 335.166Z" fill="#DA8E79" fill-opacity="0.05"/>
<path d="M224.125 327.971L219.602 324.874L208.678 334.63L194.861 330.47L191.826 335.009L210.256 341L224.125 327.971Z" fill="#DA8E79" fill-opacity="0.05"/>
<path d="M289.885 286.299L284.442 285.659L279.306 299.377L265.14 302.114L264.561 307.545L283.664 304.281L289.885 286.299Z" fill="#DA8E79" fill-opacity="0.05"/>
<path d="M329.858 217.926L324.74 219.894L326.57 234.424L315.3 243.434L317.314 248.513L332.708 236.741L329.858 217.926Z" fill="#DA8E79" fill-opacity="0.05"/>
<path d="M331.729 138.986L328.113 143.107L336.489 155.12L330.698 168.338L334.843 171.899L343 154.318L331.729 138.986Z" fill="#DA8E79" fill-opacity="0.05"/>
<path d="M297.764 68.3373L296.476 73.665L309.477 80.411L310.495 94.8045L315.82 96.0269L314.868 76.6714L297.764 68.3373Z" fill="#DA8E79" fill-opacity="0.05"/>
<path d="M236.571 21.1024L237.907 26.4199L252.555 26.3464L260.147 38.6172L265.429 37.2263L255.589 20.5291L236.571 21.1024Z" fill="#DA8E79" fill-opacity="0.05"/>
</svg>
