<svg xmlns="http://www.w3.org/2000/svg" width="57.129" height="19.05" viewBox="0 0 57.129 19.05">
  <g id="Group_15" data-name="Group 15" transform="translate(-0.936 -0.975)">
    <path id="Path_332" data-name="Path 332" d="M25.1,11.96H.936v8.051H25.1Z" fill="#84b740"/>
    <path id="Path_333" data-name="Path 333" d="M25.1.975H.936V9.033H25.1Z" fill="#259bd6"/>
    <path id="Path_334" data-name="Path 334" d="M49.268,18.375l-.108.022a3.528,3.528,0,0,1-.782.1c-.632,0-1.378-.323-1.378-1.844,0-.782.129-1.822,1.306-1.822h.007a3.535,3.535,0,0,1,.861.165l.093.029Zm.194-7.584-.194.036v2.813l-.172-.05-.05-.014a3.96,3.96,0,0,0-1.069-.187c-2.353,0-2.849,1.78-2.849,3.272a2.9,2.9,0,0,0,3.15,3.222,6.384,6.384,0,0,0,2.1-.294.929.929,0,0,0,.789-1.019V10.5C50.609,10.6,50.028,10.7,49.461,10.791Z" fill="#27292d"/>
    <path id="Path_335" data-name="Path 335" d="M56.263,18.425l-.1.029-.359.093a3.739,3.739,0,0,1-.868.136c-.553,0-.883-.273-.883-.739,0-.3.136-.811,1.04-.811h1.169v1.292Zm-.825-5.073a7.94,7.94,0,0,0-2.4.416l-.6.179.2,1.363.588-.194a6.915,6.915,0,0,1,1.959-.33c.258,0,1.048,0,1.048.854v.373h-1.1c-2,0-2.928.639-2.928,2.009,0,1.17.854,1.873,2.289,1.873a7.39,7.39,0,0,0,1.593-.215l.029-.007.029.007.179.029c.56.1,1.141.2,1.708.309V15.54C58.036,14.091,57.16,13.352,55.438,13.352Z" fill="#27292d"/>
    <path id="Path_336" data-name="Path 336" d="M42.322,18.425l-.1.029-.359.093a3.683,3.683,0,0,1-.868.136c-.552,0-.883-.273-.883-.739,0-.3.136-.811,1.033-.811h1.17v1.292ZM41.5,13.352a7.9,7.9,0,0,0-2.4.416l-.6.179.2,1.363.588-.194a6.915,6.915,0,0,1,1.959-.33c.258,0,1.048,0,1.048.854v.373H41.2c-2,0-2.935.639-2.935,2.009,0,1.17.854,1.873,2.3,1.873a7.39,7.39,0,0,0,1.593-.215l.029-.007.029.007.172.029c.567.1,1.141.2,1.708.316V15.548C44.1,14.084,43.226,13.352,41.5,13.352Z" fill="#27292d"/>
    <path id="Path_337" data-name="Path 337" d="M34.766,13.366a4.842,4.842,0,0,0-1.944.431l-.072.036-.065-.05a2.944,2.944,0,0,0-1.744-.423,7.136,7.136,0,0,0-2.059.308c-.61.187-.847.481-.847,1.033v5.116h1.909V15.089l.093-.029a2.43,2.43,0,0,1,.84-.151.755.755,0,0,1,.832.868v4.047h1.88V15.7a1.388,1.388,0,0,0-.057-.416l-.065-.122L33.6,15.1a2.264,2.264,0,0,1,.933-.194.76.76,0,0,1,.832.868v4.047h1.873V15.591C37.235,14.091,36.431,13.366,34.766,13.366Z" fill="#27292d"/>
    <path id="Path_338" data-name="Path 338" d="M54.857,6.227a6.511,6.511,0,0,1-1.112-.1l-.108-.022V3.343a1.346,1.346,0,0,0-.05-.395l-.057-.115.122-.05c.029-.014.057-.022.093-.036l.022-.014L53.9,2.69a.182.182,0,0,1,.05-.014,4.458,4.458,0,0,1,.983-.115h.007c1.169,0,1.306,1.04,1.306,1.823C56.235,5.9,55.481,6.227,54.857,6.227ZM54.85.975H54.8a3.381,3.381,0,0,0-2.626.89,1.8,1.8,0,0,0-.344,1.069V5.782a.844.844,0,0,1-.057.359l-.065.122H48.242V4.283h-.007a2.952,2.952,0,0,0-3.064-3.236H43.427c-.072.509-.129.868-.2,1.378h1.736c.911,0,1.392.775,1.392,1.966V6.385l-.122-.065a1.315,1.315,0,0,0-.409-.057h-3c-.057.38-.129.875-.208,1.37h9.22c.316-.065.682-.122,1-.172a5.192,5.192,0,0,0,1.93.352,3.148,3.148,0,0,0,3.3-3.408A3.164,3.164,0,0,0,54.85.975Z" fill="#27292d"/>
    <path id="Path_339" data-name="Path 339" d="M38.684,8.473h.086c2,0,2.935-.66,2.935-2.289a2.1,2.1,0,0,0-2.289-2.1H37.572a.8.8,0,0,1-.883-.847c0-.359.136-.8,1.04-.8h4.032c.086-.524.129-.854.208-1.378H37.78c-1.952,0-2.935.818-2.935,2.181s.854,2.052,2.289,2.052h1.844a.871.871,0,0,1,.882.9.9.9,0,0,1-1.033.926h-.309L32.614,7.1H31.538c-.911,0-1.55-.517-1.55-1.715V4.555c0-1.248.5-2.023,1.55-2.023h1.751c.079-.531.129-.868.2-1.37H31.1c-1.787,0-3.021,1.2-3.064,3.286v.933A2.832,2.832,0,0,0,31.1,8.466h1.744l3.2.007h2.641Z" fill="#27292d"/>
  </g>
</svg>
