<svg width="282" height="239" viewBox="0 0 282 239" fill="none" xmlns="http://www.w3.org/2000/svg">
<path d="M162.294 -108.3L156.991 -105.559L163.708 -73.2846L112.536 -26.3314L149.832 49.5365L156.726 52.1009L120.048 -24.7397L170.394 -71.8392L162.294 -108.3Z" fill="#DA8E79" fill-opacity="0.05"/>
<path d="M50.787 172.8L48.4308 167.022L75.4174 148.514L71.2938 78.7167L149.856 49.5395L156.725 52.1009L77.4198 82.726L81.3638 150.752L50.787 172.8Z" fill="#DA8E79" fill-opacity="0.05"/>
<path d="M307.091 177.045L308.978 170.797L282.582 151.813L288.946 82.3727L211.4 49.8633L204.393 52.1011L282.936 86.2634L276.572 154.88L307.091 177.045Z" fill="#DA8E79" fill-opacity="0.05"/>
<path d="M204.548 -108.301L209.757 -105.377L201.891 -73.3615L251.359 -24.6149L211.381 49.8765L204.393 52.1008L243.794 -23.2886L195.157 -72.157L204.548 -108.301Z" fill="#DA8E79" fill-opacity="0.05"/>
<path d="M238.603 223.351L243.174 218.698L228.63 189.612L266.534 131.094L212.983 66.2378L205.739 64.9609L259.402 131.741L221.882 189.531L238.603 223.351Z" fill="#DA8E79" fill-opacity="0.05"/>
<path d="M280.417 -76.9757L283.671 -71.9663L261.827 -47.2792L282.972 18.8871L212.959 66.2436L205.739 64.9609L275.659 16.5436L255.306 -49.3459L280.417 -76.9757Z" fill="#DA8E79" fill-opacity="0.05"/>
<path d="M117.048 220.196L112.01 216.305L127.654 187.302L91.0369 127.765L146.705 65.6689L154 64.7043L98.5796 128.472L134.99 187.302L117.048 220.196Z" fill="#DA8E79" fill-opacity="0.05"/>
<path d="M85.5058 -80.3306L82.0428 -75.4618L102.801 -49.8546L78.8195 15.3386L146.726 65.6689L153.996 64.7043L86.227 13.3106L109.408 -51.6373L85.5058 -80.3306Z" fill="#DA8E79" fill-opacity="0.05"/>
<path d="M236.979 -97.4241H243.574L233.322 -61.2284L166.506 -43.0711L164.15 42.1089L78.8189 32.2056L50.8461 95.1636L13.3732 99.5849L14.257 93.0417L46.7809 89.3271L75.2395 25.8389L158.494 35.9193L161.322 -47.9066L228.668 -65.5918L236.979 -97.4241Z" fill="#DA8E79" fill-opacity="0.05"/>
<path d="M304.766 -53.2512L310.61 -50.1889L284.739 -22.8857L217.131 -37.8209L175.536 36.5357L104.542 -11.8515L50.5607 30.9287L15.3165 17.4496L19.1334 12.0611L49.6658 23.8715L104.324 -19.1522L173.396 28.4281L214.783 -44.511L282.64 -28.9122L304.766 -53.2512Z" fill="#DA8E79" fill-opacity="0.05"/>
<path d="M343.626 18.0025L347.277 23.4212L311.284 35.4554L259.095 -9.15158L186.438 37.0445L147.509 -38.6248L79.2846 -26.0213L54.8445 -54.2923L60.816 -57.2683L81.925 -32.6589L150.862 -45.1626L188.49 28.901L260.277 -16.1427L312.361 29.1687L343.626 18.0025Z" fill="#DA8E79" fill-opacity="0.05"/>
<path d="M345.063 99.143L345.77 104.979L309.446 98.8771L283.594 34.502L198.481 42.7862L197.766 -42.9882L131.601 -62.856L122.553 -99.4273L129.182 -99.372L136.91 -67.6115L203.662 -47.3291L203.941 36.4087L287.767 28.7599L313.726 93.276L345.063 99.143Z" fill="#DA8E79" fill-opacity="0.05"/>
<path d="M157.715 230.643L163.515 229.243L164.678 196.296L225.555 162.888L207.394 80.3166L201.312 76.1855L218.637 159.55L158.524 193.298L157.715 230.643Z" fill="#DA8E79" fill-opacity="0.05"/>
<path d="M333.486 -15.0126V-8.35928L302.906 2.77686L290.887 71.1122L207.372 80.3084L201.313 76.1854L285.937 65.9838L297.78 -1.57211L333.486 -15.0126Z" fill="#DA8E79" fill-opacity="0.05"/>
<path d="M87.7719 202.278L81.3671 200.709L99.9407 167.998L169.156 166.288L191.724 84.1164L272.241 114.073L314.399 59.5924L351.845 64.2266L349.428 70.3718L316.959 66.2299L274.202 121.109L195.743 91.4773L173.04 172.217L103.424 173.347L87.7719 202.278Z" fill="#DA8E79" fill-opacity="0.05"/>
<path d="M32.4539 143.225L27.5045 138.859L59.1334 118.505L121.237 149.125L179.334 86.8186L236.768 150.73L299.38 122.047L330.401 143.534L325.413 147.86L298.571 129.113L235.243 157.873L179.486 95.202L121.925 156.182L59.7329 124.86L32.4539 143.225Z" fill="#DA8E79" fill-opacity="0.05"/>
<path d="M11.6735 64.7622L9.41705 58.6306L47.2384 55.522L87.3082 111.279L168.872 83.7288L188.664 166.497L257.924 170.512L274.931 203.795L268.425 205.263L253.781 176.329L183.85 172.048L164.939 91.1454L84.4962 117.786L44.6977 61.3689L11.6735 64.7622Z" fill="#DA8E79" fill-opacity="0.05"/>
<path d="M29.5891 -14.3885L30.2936 -20.2246L64.1185 -5.63981L73.901 63.0437L158.537 75.2761L138.811 158.754L198.341 193.817L198.421 231.494L191.997 229.858L192.049 197.172L132.05 161.567L151.715 80.1723L68.4823 67.625L58.6279 -1.21851L29.5891 -14.3885Z" fill="#DA8E79" fill-opacity="0.05"/>
<path d="M178.245 226.446L143.213 204.834L102.072 205.865L80.7143 170.064L43.7519 152.843L40.8493 111.646L16.9368 79.1998L33.4089 39.8983L27.0427 -0.508945L60.2133 -24.6295L72.8932 -63.4063L113.523 -70.4833L143.775 -99.3015L183.126 -86.9635L222.671 -97.853L251.295 -68.4881L291.37 -60.3117L303.166 -20.742L335.044 6.43997L327.432 46.5125L343.208 84.9711L317.652 116.525L314.205 157.902L277.326 173.332L254.918 208.945L213.244 205.886L178.245 226.446ZM145.136 197.711L178.334 218.189L211.565 198.669L251.201 201.579L272.537 167.668L307.516 153.035L310.786 113.769L335.077 83.7792L320.097 47.2546L327.333 9.16032L296.991 -16.712L285.808 -54.2259L247.755 -61.9875L220.523 -89.9215L183 -79.5896L145.636 -91.3031L116.849 -63.8834L78.2903 -57.1659L66.2234 -20.2518L34.6991 2.66966L40.706 40.7833L25.0076 78.2338L47.7602 109.099L50.5138 148.191L85.67 164.572L106.028 198.693L145.136 197.711Z" fill="#DA8E79" fill-opacity="0.05"/>
<path d="M30.1908 39.5779L22.0019 45.0851L12.2911 37.4088L23.5152 32.5787L30.1908 39.5779Z" fill="#DA8E79" fill-opacity="0.05"/>
<path d="M36.6097 112.094L31.9202 120.776L19.7568 118.497L27.4513 108.998L36.6097 112.094Z" fill="#DA8E79" fill-opacity="0.05"/>
<path d="M78.3282 172.8L78.2123 182.67L66.3802 186.31L68.7831 174.32L78.3282 172.8Z" fill="#DA8E79" fill-opacity="0.05"/>
<path d="M142.189 208.932L146.675 217.722L137.889 226.446L134.445 214.716L142.189 208.932Z" fill="#DA8E79" fill-opacity="0.05"/>
<path d="M214.659 209.355L222.718 215.053L218.989 226.86L210.489 218.078L214.659 209.355Z" fill="#DA8E79" fill-opacity="0.05"/>
<path d="M279.187 176.556L288.97 177.851L291.154 190.04L279.546 186.219L279.187 176.556Z" fill="#DA8E79" fill-opacity="0.05"/>
<path d="M7.61457 54.8557L12.3458 51.5733L6.844 37.1984L16.0743 25.179L12.7544 20.5029L0 36.3726L7.61457 54.8557Z" fill="#DA8E79" fill-opacity="0.05"/>
<path d="M24.7456 135.444L27.4085 130.334L15.8579 120.166L18.4485 105.233L13.3338 102.635L9.41721 122.619L24.7456 135.444Z" fill="#DA8E79" fill-opacity="0.05"/>
<path d="M77.2574 199.358L77.2435 193.599L62.2905 189.968L57.6477 175.539L51.9116 175.621L57.7281 195.136L77.2574 199.358Z" fill="#DA8E79" fill-opacity="0.05"/>
<path d="M153.526 232.165L150.836 227.073L135.911 230.811L125.098 220.195L120.057 222.933L134.27 237.507L153.526 232.165Z" fill="#DA8E79" fill-opacity="0.05"/>
<path d="M235.389 224.605L230.638 221.351L219.165 231.602L204.654 227.231L201.467 232L220.823 238.295L235.389 224.605Z" fill="#DA8E79" fill-opacity="0.05"/>
<path d="M304.455 180.82L298.737 180.148L293.343 194.561L278.465 197.437L277.857 203.144L297.92 199.714L304.455 180.82Z" fill="#DA8E79" fill-opacity="0.05"/>
</svg>
