<svg width="295" height="294" viewBox="0 0 295 294" fill="none" xmlns="http://www.w3.org/2000/svg">
<path d="M96.294 11.6996L90.9907 14.441L97.7077 46.7155L46.5355 93.6686L83.8324 169.537L90.7258 172.101L54.0482 95.2604L104.394 48.1608L96.294 11.6996Z" fill="#DA8E79" fill-opacity="0.05"/>
<path d="M-15.213 292.8L-17.5692 287.022L9.41745 268.514L5.2938 198.717L83.8558 169.54L90.7245 172.101L11.4198 202.726L15.3638 270.752L-15.213 292.8Z" fill="#DA8E79" fill-opacity="0.05"/>
<path d="M241.091 297.044L242.978 290.797L216.582 271.813L222.946 202.373L145.4 169.863L138.393 172.101L216.936 206.263L210.572 274.88L241.091 297.044Z" fill="#DA8E79" fill-opacity="0.05"/>
<path d="M138.548 11.6995L143.757 14.6233L135.891 46.6386L185.359 95.3852L145.381 169.876L138.393 172.101L177.794 96.7114L129.157 47.8431L138.548 11.6995Z" fill="#DA8E79" fill-opacity="0.05"/>
<path d="M172.603 343.351L177.174 338.698L162.63 309.612L200.534 251.094L146.983 186.238L139.739 184.961L193.402 251.741L155.882 309.531L172.603 343.351Z" fill="#DA8E79" fill-opacity="0.05"/>
<path d="M214.417 43.0243L217.671 48.0337L195.828 72.7208L216.972 138.887L146.959 186.244L139.739 184.961L209.659 136.544L189.306 70.6542L214.417 43.0243Z" fill="#DA8E79" fill-opacity="0.05"/>
<path d="M51.0482 340.196L46.0103 336.305L61.6539 307.302L25.0369 247.765L80.7053 185.669L87.9998 184.704L32.5796 248.472L68.9896 307.302L51.0482 340.196Z" fill="#DA8E79" fill-opacity="0.05"/>
<path d="M19.5058 39.6694L16.0428 44.5382L36.8011 70.1454L12.8195 135.339L80.726 185.669L87.9957 184.704L20.227 133.311L43.4075 68.3627L19.5058 39.6694Z" fill="#DA8E79" fill-opacity="0.05"/>
<path d="M170.979 22.5759H177.574L167.322 58.7716L100.506 76.929L98.1504 162.109L12.8189 152.206L-15.1539 215.164L-52.6268 219.585L-51.743 213.042L-19.2191 209.327L9.23952 145.839L92.4942 155.919L95.3218 72.0935L162.668 54.4083L170.979 22.5759Z" fill="#DA8E79" fill-opacity="0.05"/>
<path d="M238.766 66.7488L244.61 69.811L218.739 97.1143L151.131 82.1791L109.536 156.536L38.5421 108.148L-15.4393 150.929L-50.6835 137.45L-46.8666 132.061L-16.3342 143.871L38.3239 100.848L107.396 148.428L148.783 75.4889L216.64 91.0877L238.766 66.7488Z" fill="#DA8E79" fill-opacity="0.05"/>
<path d="M277.626 138.002L281.277 143.421L245.284 155.455L193.095 110.848L120.438 157.044L81.509 81.3752L13.2846 93.9786L-11.1555 65.7077L-5.18403 62.7317L15.925 87.3411L84.862 74.8374L122.49 148.901L194.277 103.857L246.361 149.169L277.626 138.002Z" fill="#DA8E79" fill-opacity="0.05"/>
<path d="M279.063 219.143L279.77 224.979L243.446 218.877L217.594 154.502L132.481 162.786L131.766 77.0118L65.6014 57.1441L56.5535 20.5728L63.1824 20.628L70.9101 52.3885L137.662 72.6709L137.941 156.409L221.767 148.76L247.726 213.276L279.063 219.143Z" fill="#DA8E79" fill-opacity="0.05"/>
<path d="M91.7151 350.643L97.515 349.243L98.6776 316.296L159.556 282.888L141.394 200.317L135.312 196.186L152.637 279.55L92.5243 313.298L91.7151 350.643Z" fill="#DA8E79" fill-opacity="0.05"/>
<path d="M267.486 104.987V111.641L236.906 122.777L224.887 191.112L141.372 200.308L135.313 196.185L219.937 185.984L231.78 118.428L267.486 104.987Z" fill="#DA8E79" fill-opacity="0.05"/>
<path d="M21.7719 322.278L15.3671 320.709L33.9407 287.998L103.156 286.288L125.724 204.116L206.241 234.073L248.399 179.592L285.845 184.227L283.428 190.372L250.959 186.23L208.202 241.109L129.743 211.477L107.04 292.217L37.4236 293.347L21.7719 322.278Z" fill="#DA8E79" fill-opacity="0.05"/>
<path d="M-33.546 263.225L-38.4955 258.859L-6.86652 238.505L55.2373 269.125L113.334 206.819L170.768 270.73L233.38 242.047L264.401 263.534L259.414 267.86L232.571 249.113L169.243 277.873L113.486 215.202L55.9253 276.182L-6.26704 244.86L-33.546 263.225Z" fill="#DA8E79" fill-opacity="0.05"/>
<path d="M-54.3264 184.762L-56.5829 178.63L-18.7615 175.522L21.3083 231.279L102.872 203.729L122.664 286.497L191.924 290.512L208.931 323.795L202.425 325.263L187.781 296.328L117.85 292.048L98.9394 211.145L18.4963 237.786L-21.3023 181.369L-54.3264 184.762Z" fill="#DA8E79" fill-opacity="0.05"/>
<path d="M-36.4109 105.611L-35.7063 99.7754L-1.88151 114.36L7.90108 183.044L92.5365 195.276L72.8111 278.754L132.341 313.817L132.421 351.494L125.997 349.858L126.049 317.172L66.0501 281.567L85.7146 200.172L2.48238 187.625L-7.37206 118.781L-36.4109 105.611Z" fill="#DA8E79" fill-opacity="0.05"/>
<path d="M112.245 346.446L77.2133 324.834L36.0721 325.865L14.7143 290.063L-22.2481 272.843L-25.1507 231.646L-49.0632 199.2L-32.5911 159.898L-38.9573 119.491L-5.78672 95.3704L6.89315 56.5936L47.5234 49.5167L77.7746 20.6985L117.126 33.0364L156.671 22.1469L185.295 51.5119L225.37 59.6882L237.166 99.258L269.044 126.44L261.432 166.512L277.208 204.971L251.652 236.524L248.205 277.902L211.326 293.332L188.918 328.945L147.244 325.886L112.245 346.446ZM79.1361 317.711L112.334 338.189L145.565 318.669L185.201 321.579L206.537 287.668L241.516 273.035L244.786 233.769L269.077 203.779L254.097 167.255L261.333 129.16L230.991 103.288L219.808 65.7741L181.755 58.0124L154.523 30.0784L117 40.4104L79.6364 28.6969L50.849 56.1165L12.2903 62.834L0.223392 99.7481L-31.3009 122.67L-25.294 160.783L-40.9924 198.234L-18.2398 229.099L-15.4862 268.191L19.67 284.572L40.0278 318.693L79.1361 317.711Z" fill="#DA8E79" fill-opacity="0.05"/>
<path d="M117.151 30.0481L110.699 22.5762L117.151 12.0093L123.293 22.5762L117.151 30.0481Z" fill="#DA8E79" fill-opacity="0.05"/>
<path d="M47.3279 46.0194L38.1448 42.4023L38.9459 30.0477L49.2948 36.5469L47.3279 46.0194Z" fill="#DA8E79" fill-opacity="0.05"/>
<path d="M12.3282 292.8L12.2123 302.67L0.380249 306.31L2.78313 294.32L12.3282 292.8Z" fill="#DA8E79" fill-opacity="0.05"/>
<path d="M254.609 238.11L263.878 234.708L271.473 244.482L259.421 246.499L254.609 238.11Z" fill="#DA8E79" fill-opacity="0.05"/>
<path d="M265.157 166.334L271.786 159.011L283.052 164.135L273.319 171.526L265.157 166.334Z" fill="#DA8E79" fill-opacity="0.05"/>
<path d="M240.709 97.4713L243.178 87.899L255.535 87.1973L250.351 98.2696L240.709 97.4713Z" fill="#DA8E79" fill-opacity="0.05"/>
<path d="M187.48 47.843L185.215 38.2183L195.832 31.8494L196.387 44.0656L187.48 47.843Z" fill="#DA8E79" fill-opacity="0.05"/>
<path d="M99.5649 9.78472L103.393 14.0897L116.995 6.89724L130.026 14.6203L134.268 10.7601L116.995 0L99.5649 9.78472Z" fill="#DA8E79" fill-opacity="0.05"/>
<path d="M21.7591 36.0025L27.1477 38.0332L35.8476 25.3417L50.9771 26.1158L52.9381 20.7272L32.6437 19.2347L21.7591 36.0025Z" fill="#DA8E79" fill-opacity="0.05"/>
<path d="M280.436 228.979L275.061 231.047L276.983 246.314L265.146 255.781L267.261 261.117L283.43 248.748L280.436 228.979Z" fill="#DA8E79" fill-opacity="0.05"/>
<path d="M282.401 146.035L278.604 150.365L287.4 162.988L281.318 176.876L285.671 180.617L294.239 162.145L282.401 146.035Z" fill="#DA8E79" fill-opacity="0.05"/>
<path d="M246.729 71.8033L245.376 77.4013L259.031 84.4895L260.1 99.6129L265.693 100.897L264.693 80.5601L246.729 71.8033Z" fill="#DA8E79" fill-opacity="0.05"/>
<path d="M182.461 22.1727L183.863 27.7598L199.248 27.6826L207.221 40.5758L212.769 39.1143L202.435 21.5702L182.461 22.1727Z" fill="#DA8E79" fill-opacity="0.05"/>
</svg>
