<svg xmlns="http://www.w3.org/2000/svg" xmlns:xlink="http://www.w3.org/1999/xlink" width="42" height="13.564" viewBox="0 0 42 13.564">
  <defs>
    <clipPath id="clip-path">
      <rect width="42" height="13.564" fill="none"/>
    </clipPath>
  </defs>
  <g id="Repeat_Grid_1" data-name="Repeat Grid 1" clip-path="url(#clip-path)">
    <g transform="translate(-642 -534)">
      <path id="Path_320" data-name="Path 320" d="M20.8,14.431,17.99,27.549H14.6L17.4,14.431ZM35.074,22.9l1.786-4.926L37.888,22.9Zm3.788,4.648H42L39.258,14.431H36.364a1.544,1.544,0,0,0-1.446.962L29.826,27.549H33.39L34.1,25.59h4.354ZM30,23.267c.015-3.462-4.786-3.654-4.754-5.2.01-.47.459-.971,1.439-1.1a6.408,6.408,0,0,1,3.347.587l.594-2.783a9.144,9.144,0,0,0-3.175-.58c-3.355,0-5.715,1.782-5.734,4.336-.022,1.889,1.686,2.942,2.97,3.571,1.324.643,1.767,1.055,1.761,1.629-.009.88-1.055,1.27-2.03,1.285a7.094,7.094,0,0,1-3.486-.829l-.616,2.876a10.314,10.314,0,0,0,3.773.7C27.66,27.755,29.992,25.994,30,23.267ZM15.946,14.431l-5.5,13.118H6.86L4.154,17.08a1.44,1.44,0,0,0-.806-1.153A14.2,14.2,0,0,0,0,14.812l.08-.381H5.855a1.583,1.583,0,0,1,1.566,1.337L8.85,23.36l3.53-8.929Z" transform="translate(642 519.809)" fill="#1434cb"/>
    </g>
  </g>
</svg>
